<svg width="16" height="16" viewBox="0 0 16 16" fill="none" xmlns="http://www.w3.org/2000/svg">
<path fill-rule="evenodd" clip-rule="evenodd" d="M7.52876 10.4718C7.65378 10.5968 7.82332 10.667 8.0001 10.667C8.17687 10.667 8.34641 10.5968 8.47143 10.4718L12.2428 6.70047C12.3064 6.63897 12.3572 6.56541 12.3922 6.48407C12.4271 6.40274 12.4455 6.31526 12.4463 6.22674C12.447 6.13822 12.4302 6.05043 12.3966 5.9685C12.3631 5.88657 12.3136 5.81213 12.251 5.74954C12.1884 5.68694 12.114 5.63744 12.0321 5.60392C11.9501 5.5704 11.8623 5.55353 11.7738 5.5543C11.6853 5.55507 11.5978 5.57346 11.5165 5.6084C11.4352 5.64334 11.3616 5.69413 11.3001 5.7578L8.0001 9.0578L4.7001 5.7578C4.57436 5.63636 4.40596 5.56917 4.23116 5.57069C4.05637 5.5722 3.88916 5.64232 3.76555 5.76592C3.64195 5.88953 3.57183 6.05674 3.57031 6.23153C3.56879 6.40633 3.63599 6.57473 3.75743 6.70047L7.52876 10.4718Z" fill="#303036"/>
</svg>
