<svg width="16" height="16" viewBox="0 0 16 16" fill="none" xmlns="http://www.w3.org/2000/svg">
<path d="M13.0348 1.99827C12.8743 2.00994 12.7168 2.0476 12.5683 2.10977H12.5663C12.4238 2.16627 11.7463 2.45127 10.7163 2.88327L7.02531 4.43777C4.37681 5.55277 1.77332 6.65077 1.77332 6.65077L1.80432 6.63877C1.80432 6.63877 1.62482 6.69777 1.43732 6.82627C1.32148 6.89998 1.2218 6.99642 1.14432 7.10977C1.05232 7.24477 0.978315 7.45127 1.00582 7.66477C1.05082 8.02577 1.28482 8.24227 1.45282 8.36177C1.62282 8.48277 1.78482 8.53927 1.78482 8.53927H1.78882L4.23032 9.36177C4.33982 9.71327 4.97431 11.7993 5.12681 12.2798C5.21681 12.5668 5.30432 12.7463 5.41382 12.8833C5.46681 12.9533 5.52881 13.0118 5.60331 13.0588C5.64205 13.0813 5.68334 13.0991 5.72632 13.1118L5.70131 13.1058C5.70882 13.1078 5.71482 13.1138 5.72031 13.1158C5.74031 13.1213 5.75382 13.1233 5.77931 13.1273C6.16581 13.2443 6.47632 13.0043 6.47632 13.0043L6.49381 12.9903L7.93532 11.6778L10.3513 13.5313L10.4063 13.5548C10.9098 13.7758 11.4198 13.6528 11.6893 13.4358C11.9608 13.2173 12.0663 12.9378 12.0663 12.9378L12.0838 12.8928L13.9508 3.32827C14.0038 3.09227 14.0173 2.87127 13.9588 2.65677C13.8985 2.43968 13.7592 2.25297 13.5683 2.13327C13.408 2.03582 13.2222 1.98879 13.0348 1.99827ZM12.9843 3.02327C12.9823 3.05477 12.9883 3.05127 12.9743 3.11177V3.11727L11.1248 12.5823C11.1168 12.5958 11.1033 12.6253 11.0663 12.6548C11.0273 12.6858 10.9963 12.7053 10.8338 12.6408L7.87882 10.3753L6.09381 12.0023L6.46881 9.60727L11.2968 5.10727C11.4958 4.92227 11.4293 4.88327 11.4293 4.88327C11.4433 4.65627 11.1288 4.81677 11.1288 4.81677L5.04081 8.58827L5.03882 8.57827L2.12082 7.59577V7.59377L2.11332 7.59227C2.11843 7.59057 2.12344 7.58856 2.12832 7.58627L2.14432 7.57827L2.15982 7.57277C2.15982 7.57277 4.76532 6.47477 7.41382 5.35977C8.73981 4.80127 10.0758 4.23877 11.1033 3.80477C11.7127 3.54827 12.3227 3.29327 12.9333 3.03977C12.9743 3.02377 12.9548 3.02327 12.9843 3.02327Z" fill="#303036"/>
</svg>
